# xmcd
#
# Track frame offsets:
# 150
# 19578
# 35293
# 52548
# 77008
# 94793
# 106985
# 124835
# 142718
# 160340
# 172345
# 189848
#
# Disc length: 2880 seconds
#
# Revision: 0
# Processed by: cddbd v1.5.2PL0 Copyright (c) Steve Scherf et al.
# Submitted via: Audion 3.0.2 (http://www.panic.com/audion/)
#
DISCID=880b3e0c
DTITLE=Skid Row - Slave to the grind
DYEAR=1900
DGENRE=
TTITLE0=Monkey Business
TTITLE1=Slave to the Grind
TTITLE2=The Threat
TTITLE3=Psycho love
TTITLE4=get the fuck out
TTITLE5=livin' on a chain gang
TTITLE6=creepshow
TTITLE7=in a Darkened room
TTITLE8=riot act
TTITLE9=mudkiker
TTITLE10=wasted time
TTITLE11=bonus track
EXTD=
EXTT0=
EXTT1=
EXTT2=
EXTT3=
EXTT4=
EXTT5=
EXTT6=
EXTT7=
EXTT8=
EXTT9=
EXTT10=
EXTT11=
PLAYORDER=
